# xmcd
#
# Track frame offsets: 
#        150
#        17494
#        34822
#        45462
#        59377
#        71154
#        83562
#        99680
#        107684
#        127066
#        135871
#        152257
#        164980
#
# Disc length: 2359 seconds
#
# Revision: 6
# Processed by: cddbd v1.5.2PL0 Copyright (c) Steve Scherf et al.
# Submitted via: ExactAudioCopy v1.3
#
DISCID=a609350d
DTITLE=Loretta Lynn - Van Lear Rose
DYEAR=2004
DGENRE=Country
TTITLE0=Van Lear Rose
TTITLE1=Portland, Oregon (with Jack White)
TTITLE2=Trouble On The Line
TTITLE3=Family Tree
TTITLE4=Have Mercy
TTITLE5=High on a Mountain Top
TTITLE6=Little Red Shoes
TTITLE7=God Makes No Mistakes
TTITLE8=Women's Prison
TTITLE9=This Old House
TTITLE10=Mrs. Leroy Brown
TTITLE11=Miss Being Mrs.
TTITLE12=Story of My Life
EXTD=
EXTT0=
EXTT1=
EXTT2=
EXTT3=
EXTT4=
EXTT5=
EXTT6=
EXTT7=
EXTT8=
EXTT9=
EXTT10=
EXTT11=
EXTT12=
PLAYORDER=
